# xmcd
#
# Track frame offsets: 
#        150
#        4801
#        21442
#        35166
#        49769
#        72096
#        98556
#        113295
#        133572
#
# Disc length: 2248 seconds
#
# Revision: 0
# Processed by: cddbd v1.5.2PL0 Copyright (c) Steve Scherf et al.
# Submitted via: ExactAudioCopy v1.0b4
#
DISCID=6c08c609
DTITLE=Sebastian Lane Band - Walkin' By Myself
DYEAR=2018
DGENRE=Blues
TTITLE0=Walkin' By Myself
TTITLE1=Tired
TTITLE2=Better Days
TTITLE3=Little Dove
TTITLE4=Jezebel (feat. Eric Gales)
TTITLE5=Mama
TTITLE6=Blue Blood
TTITLE7=Connected
TTITLE8=Catfish Blues (feat. Christone ''Kingfish'' Ingram)
EXTD=
EXTT0=
EXTT1=
EXTT2=
EXTT3=
EXTT4=
EXTT5=
EXTT6=
EXTT7=
EXTT8=
PLAYORDER=
